<svg xmlns="http://www.w3.org/2000/svg" width="48" height="48" viewBox="0 0 48 48"><path d="m20.243 5.637.026-.02c.092-.077.133-.097.15-.219.043-.307-.49-.772-.24-1.012.104-.101.305-.101.444-.087 1.17.122 2.284.522 3.396.885.335.109.682.263 1.016.354.608.127.242-.495.448-.753.036-.045.152-.067.206-.054 2.038.456 3.816 1.692 5.54 2.816.253.147.564.19.84.28.7.23 1.3.71 1.76 1.273.843 1.033.93 2.109.908 3.39-.031 1.916-.243 3.836-.438 5.742-.043.438-.115.9-.132 1.339.885-.01 1.403.056 2.07.7 1.086 1.05.9 2.235.606 3.562-.452 2.037-.434 4.135-2.935 4.578-.13.452-.208.965-.338 1.436a12.4 12.4 0 0 1-1.36 3.18c-.166.27-.342.494-.515.754.435.203 1.169.638 1.59.893 2.988 1.807 6.349 4.654 7.57 8.02a20 20 0 0 1 .943 3.68q.07.472.118.945c.02.201.037.49.08.681H6.011c.057-.487.09-.978.164-1.462.713-4.68 2.354-7.249 6.05-10.17a23 23 0 0 1 3.28-2.156c.154-.083.724-.343.767-.476-.184-.279-.37-.534-.544-.821a12.2 12.2 0 0 1-1.445-3.689c-.019-.088-.131-.746-.198-.77-.586-.212-1.171-.313-1.616-.813-1.107-1.244-1.285-3.677-1.54-5.253-.238-1.46 1.4-3.127 2.933-2.815.026-.433.018-.928 0-1.363-.07-1.73.08-3.545-.114-5.265-.174-1.538-.632-3.101-.81-4.646-.015-.14-.03-.359.063-.47.38-.078.761-.036 1.145-.066.427-.033.848-.126 1.273-.16.298-.024.992.077 1.196-.172.038-.046.044-.093.037-.15-.038-.298-.798-.753-.588-1.036.21-.281 2.311-.552 2.744-.58q.453-.03.908-.032c.176-.001.35.017.526.002"/><path fill="#777676" d="M6.891 48c.476-4.863 1.764-7.595 5.58-10.73q.939-.764 1.96-1.412c.326-.202.793-.44 1.09-.638l-1.513 3.559c-.225.525-.514 1.148-.69 1.692-.036.114.018.358.067.473.107.254.312.455.568.558.28.11.659.015.948-.052.681-.16 1.405-.263 2.082-.43.063.474.151.974.236 1.447.332 1.837.585 3.7.93 5.533zM32.475 35.219c5.542 3.21 7.924 6.375 8.626 12.781H29.85c.264-1.44.496-2.926.736-4.371l.278-1.66c.049-.29.12-.658.15-.947.738.176 1.491.281 2.244.459.686.162 1.164.061 1.41-.71.1-.314-.143-.753-.276-1.061l-.476-1.11z"/><path fill="#fefefe" d="M19.905 41.326c.767.958 1.657 1.373 2.863 1.509q.754.079 1.512.051c1.747-.046 2.72-.392 3.821-1.808-.033.682-.002 1.598-.003 2.304V48h-8.194zM13.228 20.465c.246-.02.338-.012.577.034.005.392-.029.902.008 1.276.09.149.125.177.275.265v1.258c.195.17.404.34.545.56.167.261.185.543.256.823.239.938.236 2.036.886 2.795.529.617 1.193.905 1.99.95.924.052 2.336.08 3.218-.175.79-.228 1.656-1.157 1.804-1.962.109-.596.076-1.262.6-1.703.22-.186.558-.268.85-.238.26.026.505.139.693.32.593.565.42 1.246.584 1.885.07.277.2.536.384.755.202.242.365.35.613.524.618.432.99.51 1.721.579q.758.066 1.518.048c1.36-.02 2.423-.185 3.122-1.557.221-.435.267-1.065.387-1.543.116-.458.165-1.09.397-1.499.118-.207.357-.403.539-.554q.003-.631 0-1.263c-.038-.047-.046-.032-.128-.044l-.01-.034c.032-.049.141-.211.144-.26.024-.401-.003-.808 0-1.21 1.084-.22 1.945.656 1.992 1.721.01.254-.07.658-.12.915-.21 1.096-.342 2.249-.77 3.284-.254.61-.643.84-1.228 1.056.001-.441.091-.976.1-1.458.031-.387.172-.973-.378-1.026-.412-.039-.494.31-.506.642-.116 2.992-.853 6.467-3.218 8.526-1.659 1.445-4.105 2.717-6.36 2.679-2.303-.168-5.374-1.917-6.79-3.744-1.517-1.958-2.13-4.943-2.203-7.372-.007-.18-.018-.47-.158-.602-.282-.264-.742-.124-.757.292-.017.648.072 1.35.12 1.98-.235-.053-.429-.09-.636-.216-.586-.393-.942-1.551-1.034-2.267-.139-1.08-.798-2.694-.14-3.661.298-.438.624-.67 1.113-.779"/><path d="M23.247 25.707c.506.003.293.53.264.854-.05.541-.21 1.14-.223 1.68v.036q.31.278.677.474c.334-.14.545-.478.89-.59.175-.057.308.094.314.26.003.123-.132.215-.217.286-.27.219-.727.646-1.091.559-.366-.08-1.112-.584-1.104-.998.014-.729.196-1.58.298-2.31.018-.131.09-.186.192-.25M22.05 32.014c.193.04.523.157.745.212a5.8 5.8 0 0 0 2.034.128c.325-.04.612-.204.854-.237.258-.036.434.318.068.557-.697.37-1.976.324-2.744.186-.35-.09-.953-.152-1.2-.438-.13-.149.113-.34.243-.408M23.175 33.28c.254-.015.6.192.895.203.204.008.315-.093.474-.02.075.111.06.198-.034.292-.323.116-1.17.131-1.39-.277-.027-.05.026-.145.055-.198"/><path fill="#fefefe" d="M24.247 13.674c.238-.032.506-.018.747-.018 1.212-.002 5.942.015 6.67.773.502.52.35 1.36.294 2.01-.031.369-.06.737-.067 1.108-.029 1.47.382 2.263 1.395 3.316.015.256 0 .705.049.933-.545-.152-1.288-.261-1.85-.323a2.2 2.2 0 0 0-.29-.929c-.237-.358-.904-.457-1.314-.514a6.9 6.9 0 0 0-3.227.305c-.508.178-.774.294-.303.81a5.3 5.3 0 0 1 1.961-.464c1.087-.06 1.926.01 2.777.759-1.378-.143-3.616-.224-4.844.404a2.7 2.7 0 0 0-.625.46c-.376.365-.74.94-1.309.99-.96.087-1.413-.742-2.05-1.28-.214-.18-.446-.344-.713-.434-.856-.287-3.086-.245-4.058-.165-.154.006-.265.02-.419.04.32-.267.766-.553 1.176-.66.845-.207 1.778-.139 2.624.025.33.043.619.212.934.291.126.032.36-.454.242-.532-.411-.274-1.126-.445-1.593-.525a6 6 0 0 0-.753-.082c-.648-.03-2.053.011-2.603.448-.21.166-.39.788-.39 1.061-.626.065-1.45.22-2.054.388.055-.327.063-.761.058-1.092-.008-.556.157-.775.433-1.229.357-.586.7-1.107.872-1.782.206-.807.057-1.691.252-2.48.134-.544.61-.957 1.095-1.212.043.76.116 1.646.327 2.382.097.339.616 1.524.941 1.685.24-.01.172-.525.167-.71-.011-.399.003-.791.004-1.189 0-.406.344-1.804.869-1.765.32.143.253 1.133.266 1.44.038.908.263 1.778.702 2.577.055.1.123.19.236.219.172-.078.076-.716.08-.918.054-2.356.699-3.914 3.291-4.121"/><path fill="#fefefe" d="M18.809 21.503c.289-.007.623.005.913.011.842.02 1.562.046 2.218.646.458.417.727 1.003.744 1.622.016.44-.24 2.573-.379 2.967a2.2 2.2 0 0 1-.475.776c-.722.765-1.66.758-2.652.788-1.046.02-2.256.057-3.044-.7-.744-.674-.832-1.494-.861-2.439-.034-1.088-.3-2.002.533-2.892.783-.837 1.952-.752 3.003-.78"/><path d="M20.043 23.698c1.473-.127 1.744 3.157.212 3.535-1.494.114-1.778-3.133-.212-3.535"/><path fill="#fefefe" d="M20.016 24.308c.105-.006.187-.012.287.024a.56.56 0 0 1 .32.294c.171.373-.019.731-.383.883a.5.5 0 0 1-.212-.009.56.56 0 0 1-.355-.292c-.182-.364-.021-.738.343-.9M28.255 21.526c.626-.056 2.611-.02 3.178.132.297.08.574.22.814.412.465.375.76.92.819 1.515.044.427-.078 2.474-.199 2.887a2.45 2.45 0 0 1-.456.862c-.546.668-1.141.863-1.959.95-.787.042-2.347.078-3.09-.17a2.2 2.2 0 0 1-.737-.425c-.763-.662-.769-1.418-.875-2.349-.048-.421-.121-.897-.15-1.317a2.29 2.29 0 0 1 .577-1.697c.603-.672 1.242-.754 2.078-.8"/><path d="M27.728 23.698c1.448-.124 1.776 3.139.192 3.534-1.453.132-1.772-3.146-.193-3.534"/><path fill="#fefefe" d="M27.68 24.31c.1-.007.186-.016.282.015.15.05.274.16.341.305.075.162.08.349.014.516-.078.192-.197.28-.381.355a.51.51 0 0 1-.576-.282.7.7 0 0 1-.04-.526c.068-.202.177-.293.36-.384M19.905 36.594c3.164 1.495 4.813 1.528 8.012.099l.008 1.325c.003 1.013.015 1.53-.501 2.429-.746 1.076-1.654 1.52-2.958 1.53-1.325.009-2.563.066-3.594-.923-1.24-1.19-.944-2.908-.967-4.46"/><path fill="#777676" d="M16.885 34.488c.11.014.275.18.36.259.558.506 1.116.93 1.76 1.324l.001 7.89v2.36c0 .444.011.94-.01 1.38l-.466-2.824c-.14-.957-.329-1.93-.478-2.89-.096-.529-.152-1.07-.278-1.593-.034-.175-.232-.358-.421-.336-1.042.12-2.127.459-3.158.599.16-.425.377-.903.555-1.324l1.082-2.53.62-1.442c.097-.225.28-.72.433-.873M31.033 34.494c.074.009.156.04.188.113.138.31.27.622.405.934l.784 1.818.835 1.962c.18.423.4.907.553 1.337-.172-.018-.323-.061-.502-.092-.895-.155-1.8-.418-2.702-.507-.166-.017-.332.196-.368.35-.11.479-.18.98-.261 1.469l-.482 2.93-.31 1.852c-.036.218-.109.732-.17.913l-.015-.01.028-.007-.032-.014.042-.007-.044-.017c-.013-.29.013-.763.014-1.077l-.002-2.436.008-7.935c.914-.602 1.21-.822 2.031-1.576"/></svg>